<svg width="271.2097464575655" height="90" viewBox="0 0 271.2097464575655 90" class="css-1j8o68f"><defs id="SvgjsDefs1001"></defs><g id="SvgjsG1007" featurekey="5TMTKC-0" transform="matrix(0.8999999761581421,0,0,0.8999999761581421,0,-0.9)" fill="#111111"><g xmlns="http://www.w3.org/2000/svg"><path d="M89,12H67v2h22c5.5,0,9,3.5,9,9c0,5-4,9-9,9H11C4.9,32,0,36.9,0,43c0,6.6,4.4,11,11,11h31.1c-2.5,2.2-4.1,5.4-4.1,9v2h-9.8   v30c0,3.3,2.7,6,6,6h32c3.3,0,6-2.7,6-6V65H62v-2c0-6.6-5.4-12-12-12c-1.7,0-3.3,0.4-4.8,1H11c-5.5,0-9-3.5-9-9c0-5,4-9,9-9h78   c6.1,0,11-4.9,11-11C100,16.4,95.6,12,89,12z M50,55c4.4,0,8,3.6,8,8v2H42v-2C42,58.6,45.6,55,50,55z"></path><g><path d="M67,3v9h-4.3c-0.3-0.6-1-1-1.7-1h-1c-0.7,0-1.4,0.4-1.7,1h-4.1V1H65C66.1,1,67,1.9,67,3z"></path><path d="M52.2,1v24H45c-6.6,0-12-5.4-12-12S38.4,1,45,1H52.2z"></path><path d="M67,14v9c0,1.1-0.9,2-2,2H54.2V14h4.1c0.3,0.6,1,1,1.7,1h1c0.7,0,1.4-0.4,1.7-1H67z"></path></g></g></g><g id="SvgjsG1008" featurekey="sloganFeature-0" transform="matrix(1.0975608825683594,0,0,1.0975608825683594,108.90243938818774,54.829268994748276)" fill="#111111"><path d="M1 20 l0 -16 l4.2 0 l0 1.6 l-2.2 0 l0 6 l1.8 0 l0 1.6 l-1.8 0 l0 6.8 l-2 0 z M6.6000000000000005 20 l0 -16 l4.6 0 l0 1.6 l-2.6 0 l0 5.2 l2.2 0 l0 1.6 l-2.2 0 l0 5.6 l2.6 0 l0 2 l-4.6 0 z M12.600000000000001 20 l0 -16 l2 0 l0 16 l-2 0 z M16.6 20 l0 -16 l3.24 0 c2.06 0 2.76 1.26 2.76 3.68 c0 2.18 -0.26 3.42 -0.88 4.02 l0 0.12 c0.52 0.18 0.68 1.12 0.88 3.46 l0.4 4.72 l-2 0 l-0.26 -4.72 c-0.14 -2.38 -0.5 -2.88 -1.1 -2.88 l-1.04 0 l0 7.6 l-2 0 z M18.6 10.8 l1.24 0 c0.7 0 0.9 -0.7 0.9 -3.12 c0 -1.58 -0.3 -2.08 -0.9 -2.08 l-1.24 0 l0 5.2 z M24.6 20 l0 -8.4 c0 -5.58 0 -7.78 3 -7.78 s3 2.2 3 7.78 l0 8.4 l-2 0 l0 -4.6 l-2 0 l0 4.6 l-2 0 z M26.6 13.8 l2 0 l0 -2.2 c0 -5.2 0 -6.18 -1 -6.18 s-1 0.98 -1 6.18 l0 2.2 z M32.2 15.120000000000001 l2.02 0 c0.04 2.58 0.24 3.08 0.96 3.08 c0.98 0 0.98 -0.82 0.98 -3 c0 -3.2 -3.96 -2.34 -3.96 -6.6 c0 -2.5 0 -4.8 3 -4.8 c2.22 0 2.82 1.26 2.96 4.28 l-2 0 c-0.08 -2.18 -0.32 -2.68 -0.96 -2.68 c-0.98 0 -0.98 1.08 -0.98 3.2 c0 3.1 3.98 2 3.98 6.6 c0 2.8 0 5 -3.02 5 c-2.32 0 -2.86 -1.38 -2.98 -5.08 z M44.2 20 l0 -8.4 c0 -5.58 0 -7.78 3 -7.78 s3 2.2 3 7.78 l0 8.4 l-2 0 l0 -4.6 l-2 0 l0 4.6 l-2 0 z M46.2 13.8 l2 0 l0 -2.2 c0 -5.2 0 -6.18 -1 -6.18 s-1 0.98 -1 6.18 l0 2.2 z M52.2 20 l0 -16 l3.04 0 c2.06 0 2.74 1.28 2.74 3.58 l0 0.42 c0 1.38 -0.32 2.46 -0.68 3.24 l0 0.08 c0.74 0.62 1.2 1.84 1.3 3.96 l0 0.64 c-0.16 2.82 -0.9 4.08 -2.96 4.08 l-3.44 0 z M54.2 10.8 l1.04 0 c0.56 0 0.96 -0.66 0.96 -2.8 l0 -0.42 c0 -1.54 -0.36 -1.98 -0.96 -1.98 l-1.04 0 l0 5.2 z M54.2 18 l1.44 0 c0.6 0 1.02 -0.5 1.1 -2.08 l0 -0.64 c-0.08 -2.38 -0.5 -2.88 -1.1 -2.88 l-1.44 0 l0 5.6 z M60 20 l0 -16 l4.6 0 l0 1.6 l-2.6 0 l0 5.2 l2.2 0 l0 1.6 l-2.2 0 l0 5.6 l2.6 0 l0 2 l-4.6 0 z M66 20 l0 -16 l3.24 0 c2.06 0 2.76 1.26 2.76 3.68 c0 2.18 -0.26 3.42 -0.88 4.02 l0 0.12 c0.52 0.18 0.68 1.12 0.88 3.46 l0.4 4.72 l-2 0 l-0.26 -4.72 c-0.14 -2.38 -0.5 -2.88 -1.1 -2.88 l-1.04 0 l0 7.6 l-2 0 z M68 10.8 l1.24 0 c0.7 0 0.9 -0.7 0.9 -3.12 c0 -1.58 -0.3 -2.08 -0.9 -2.08 l-1.24 0 l0 5.2 z M73.2 5.800000000000001 l0 -1.8 l6 0 l0 1.8 l-2 0 l0 14.2 l-2 0 l0 -14.2 l-2 0 z M80.4 20 l0 -8.4 c0 -5.58 0 -7.78 3 -7.78 s3 2.2 3 7.78 l0 8.4 l-2 0 l0 -4.6 l-2 0 l0 4.6 l-2 0 z M82.4 13.8 l2 0 l0 -2.2 c0 -5.2 0 -6.18 -1 -6.18 s-1 0.98 -1 6.18 l0 2.2 z M88 15.120000000000001 l2.02 0 c0.04 2.58 0.24 3.08 0.96 3.08 c0.98 0 0.98 -0.82 0.98 -3 c0 -3.2 -3.96 -2.34 -3.96 -6.6 c0 -2.5 0 -4.8 3 -4.8 c2.22 0 2.82 1.26 2.96 4.28 l-2 0 c-0.08 -2.18 -0.32 -2.68 -0.96 -2.68 c-0.98 0 -0.98 1.08 -0.98 3.2 c0 3.1 3.98 2 3.98 6.6 c0 2.8 0 5 -3.02 5 c-2.32 0 -2.86 -1.38 -2.98 -5.08 z M100.00000000000001 20 l0 -8.4 c0 -5.58 0 -7.78 3 -7.78 s3 2.2 3 7.78 l0 8.4 l-2 0 l0 -4.6 l-2 0 l0 4.6 l-2 0 z M102.00000000000001 13.8 l2 0 l0 -2.2 c0 -5.2 0 -6.18 -1 -6.18 s-1 0.98 -1 6.18 l0 2.2 z M111.60000000000002 5.800000000000001 l0 -1.8 l6 0 l0 1.8 l-2 0 l0 14.2 l-2 0 l0 -14.2 l-2 0 z M118.60000000000002 11.58 c0 -5.58 0.12 -7.78 3.12 -7.78 s3.12 2.2 3.12 7.78 c0 6.4 -0.12 8.62 -3.12 8.62 s-3.12 -2.22 -3.12 -8.62 z M120.60000000000002 11.58 c0 5.78 0 6.62 1.12 6.62 s1.12 -0.84 1.12 -6.62 c0 -5.2 0 -6.18 -1.12 -6.18 s-1.12 0.98 -1.12 6.18 z M126.64000000000003 20 l0 -16 l3 0 c3 0 3 2.2 3 7.58 c0 6.2 0 8.42 -3 8.42 l-3 0 z M128.64000000000004 18 l1 0 c1.12 0 1.12 -0.84 1.12 -6.42 c0 -5 0 -5.98 -1.12 -5.98 l-1 0 l0 12.4 z M134.24000000000004 11.58 c0 -5.58 0.12 -7.78 3.12 -7.78 s3.12 2.2 3.12 7.78 c0 6.4 -0.12 8.62 -3.12 8.62 s-3.12 -2.22 -3.12 -8.62 z M136.24000000000004 11.58 c0 5.78 0 6.62 1.12 6.62 s1.12 -0.84 1.12 -6.62 c0 -5.2 0 -6.18 -1.12 -6.18 s-1.12 0.98 -1.12 6.18 z M141.88000000000002 15.120000000000001 l2.02 0 c0.04 2.58 0.24 3.08 0.96 3.08 c0.98 0 0.98 -0.82 0.98 -3 c0 -3.2 -3.96 -2.34 -3.96 -6.6 c0 -2.5 0 -4.8 3 -4.8 c2.22 0 2.82 1.26 2.96 4.28 l-2 0 c-0.08 -2.18 -0.32 -2.68 -0.96 -2.68 c-0.98 0 -0.98 1.08 -0.98 3.2 c0 3.1 3.98 2 3.98 6.6 c0 2.8 0 5 -3.02 5 c-2.32 0 -2.86 -1.38 -2.98 -5.08 z"></path></g><g id="SvgjsG1009" featurekey="nameLeftFeature-0" transform="matrix(1.7964913845062256,0,0,1.7964913845062256,136.7542484280055,-3.842106866215399)" fill="#111111"><path d="M2.3438 11.1328 l0.078125 0.039063 l0.19531 0 q0.0390625 0 0.0390625 -0.0390625 q0.263671875 0.1171875 0.4296875 0.1171875 q0.0390625 0 0.0390625 -0.0390625 l0.15625 0.078125 q0.078125 -0.0390625 0.1171875 -0.0390625 q1.015625 0.546875 1.015625 1.015625 q0.1171875 0.3125 0.15625 0.3125 q0 0.078125 0.390625 0.078125 l0.3125 0 l0.19531 0.039063 l0 -0.039063 l0.3125 0.078125 q0 -0.0390625 0.0390625 -0.0390625 l0 0.039063 l0.078125 -0.039063 l0.11719 0 l0.078125 0.039063 q0 -0.0390625 0.0390625 -0.0390625 q0 0.0390625 0.0390625 0.0390625 l0 -0.039063 q0.107421875 0.029296875 0.46875 0.078125 l0 -0.039063 q2.12890625 0.21484375 2.34375 0.5078125 q-0.05859375 0 -0.1171875 0.078125 l-0.11719 0 q0 0.068359375 -0.3515625 0.15625 l0 0.039063 q-0.078125 -0.0390625 -0.1171875 -0.0390625 l-0.15625 0.078125 q0 -0.0390625 -0.0390625 -0.0390625 l0 0.039063 q0.078125 0.009765625 0.078125 0.078125 q-0.390625 -0.0390625 -0.5859375 -0.0390625 l-1.2109 0 l-0.27344 0.039063 l0 -0.039063 l-0.078125 0.039063 l-0.625 0 q-0.0390625 0 -0.0390625 -0.0390625 q-0.0390625 0 -0.0390625 0.0390625 l-0.39063 -0.039063 l-0.19531 0 q0 0.1171875 -0.0390625 0.2734375 q0.0390625 0 0.0390625 0.0390625 l-0.039063 0 l0.039063 0.078125 l0 0.039063 q0 0.0390625 -0.0390625 0.0390625 q0.0390625 0.234375 0.078125 0.234375 l-0.039063 0.078125 l0 0.27344 q0 0.0390625 0.0390625 0.0390625 l-0.039063 0.078125 l0 0.42969 q0 0.0390625 -0.0390625 0.0390625 q0.0390625 0.078125 0.0390625 0.1171875 l-0.039063 0.078125 l0.039063 0.078125 q-0.0390625 0.068359375 -0.0390625 0.15625 l0 0.039063 l0.11719 0 q-0.1171875 1.19140625 -0.46875 1.9921875 q-0.810546875 1.66015625 -1.7578125 2.0703125 q-0.498046875 0.234375 -0.9375 0.234375 l-0.42969 0 q-0.654296875 -0.05859375 -1.2890625 -0.46875 q-0.56640625 -0.537109375 -0.78125 -1.25 q-0.1171875 -0.302734375 -0.1171875 -0.546875 l0 -0.078125 q0 -1.279296875 1.2890625 -3.5546875 q0.48828125 -0.849609375 1.015625 -1.4453125 q0 -0.048828125 0.1953125 -0.234375 q0 -0.01953125 0.234375 -0.2734375 q0 -0.1953125 -0.078125 -0.1953125 q0 -0.625 0.5078125 -0.78125 q0.15625 0 0.15625 -0.0390625 z M0.78125 17.1094 l0.039063 0 q-0.078125 0.126953125 -0.078125 0.1953125 q0.0390625 0 0.0390625 0.0390625 q-0.09765625 0 -0.1953125 1.1328125 q0.078125 0.3515625 0.1171875 0.3515625 q0.72265625 0 1.2890625 -0.78125 q0.185546875 -0.2734375 0.234375 -0.2734375 l-0.039063 -0.078125 q0.107421875 -0.234375 0.15625 -0.234375 q0 0.0390625 0.0390625 0.0390625 l0.078125 -0.15625 q-0.0390625 -0.078125 -0.0390625 -0.1171875 l0.078125 0.039063 q0.3125 -0.60546875 0.3125 -0.9375 q0.029296875 -0.1953125 0.1171875 -0.1953125 l0 -0.23438 q0.15625 0 0.3125 -2.1484375 q-0.0390625 -0.068359375 -0.0390625 -0.15625 l0.039063 -0.078125 q0 -0.107421875 -0.3515625 -0.234375 l-0.078125 0.039063 q-0.09765625 -0.078125 -0.1171875 -0.078125 l-0.039063 0 q-0.15625 0.126953125 -0.8984375 1.6796875 q-0.673828125 1.23046875 -0.9765625 2.1875 z M4.7656 15.4687 l0.039063 0 l0 0.19531 l-0.039063 0 l0 -0.19531 z M2.4219 17.3047 l0 0.039063 q-0.0390625 0.078125 -0.0390625 0.1171875 l-0.039063 0 l0 -0.11719 z M15.95701875 11.5332 l0 0.039063 q0.078125 -0.0390625 0.1171875 -0.0390625 q1.1328125 0.498046875 1.1328125 0.859375 q0.0390625 0 0.1171875 0.3515625 l-0.039063 0 q0.078125 0.15625 0.078125 0.234375 l-0.039063 0 l0.039063 0.078125 q-0.0390625 0.068359375 -0.0390625 0.1171875 l0.039063 0 q-0.37109375 1.3671875 -1.40625 2.578125 q0 -0.0390625 -0.0390625 -0.0390625 q-0.703125 0.859375 -0.9765625 0.859375 q0 0.087890625 -0.703125 0.5859375 q-0.6640625 0.390625 -0.859375 0.390625 q-0.087890625 0 -1.25 0.5078125 l0 -0.039063 q-0.556640625 0.1953125 -0.9765625 0.1953125 l-0.039063 0 q-0.0390625 0 -0.0390625 -0.0390625 q-0.1171875 0.0390625 -0.1171875 0.078125 l-0.19531 -0.039063 l-0.35156 0 q-0.0390625 0 -0.0390625 -0.0390625 q-0.0390625 0 -0.0390625 0.0390625 q-0.3515625 -0.0390625 -0.7421875 -0.1953125 l0 0.039063 q-0.0390625 0.068359375 -0.0390625 0.15625 q0.0390625 0 0.0390625 0.0390625 q-0.029296875 0 -0.5078125 0.8984375 l0 0.039063 l0.039063 0.078125 q-0.126953125 0 -0.546875 0.9765625 q-0.068359375 0.234375 -0.3125 0.625 q-0.703125 1.3671875 -1.40625 2.9296875 q-0.4296875 0.732421875 -0.5859375 1.6015625 l-0.27344 0.19531 l0 -0.078125 l-0.078125 0.039063 l-0.078125 -0.039063 q-0.068359375 0.0390625 -0.1171875 0.0390625 q0 -0.05859375 -0.1171875 -0.1171875 q0 0.0390625 -0.0390625 0.0390625 q0 -0.0390625 -0.0390625 -0.0390625 l0 0.039063 q-0.2734375 0 -0.390625 -0.8203125 q-0.0390625 0 -0.1171875 -0.15625 q0 -0.2734375 0.390625 -1.796875 q-0.0390625 0 -0.0390625 -0.0390625 q0.1171875 -0.05859375 0.3125 -0.78125 q1.2109375 -3.076171875 1.7578125 -4.3359375 q1.15234375 -2.490234375 2.421875 -4.53125 l0 -0.078125 l-0.078125 0 l0 -0.039063 q0.078125 0 0.078125 -0.1171875 l0.039063 0 q0 0.078125 0.0390625 0.078125 q0.1953125 0 0.1953125 -0.078125 q0.498046875 0.205078125 0.546875 0.3125 q0.283203125 0 0.5078125 0.9375 q-0.0390625 0 -0.0390625 0.0390625 l0.039063 0 l-0.039063 0.078125 l0 0.078125 l0.039063 0.078125 q-0.078125 0.009765625 -0.078125 0.078125 l0 0.078125 q0.01953125 0.078125 0.078125 0.078125 q0.673828125 -0.78125 1.4453125 -1.40625 q0 0.0390625 0.0390625 0.0390625 q0 -0.25390625 1.875 -1.25 q0.732421875 -0.390625 1.40625 -0.390625 z M15.60551875 12.7832 l0 -0.039063 l-0.58594 0.23438 q0 -0.0390625 -0.0390625 -0.0390625 q0 0.087890625 -0.46875 0.234375 q-1.015625 0.712890625 -1.25 0.7421875 q-0.76171875 0.60546875 -1.8359375 1.6796875 l0 -0.039063 q0.078125 -0.09765625 0.078125 -0.1171875 l-0.039063 0 l-1.1719 1.5234 q-0.078125 0.126953125 -0.078125 0.1953125 l0.3125 0 l0.078125 -0.039063 l0 0.039063 q2.03125 -0.37109375 3.59375 -1.71875 q0.380859375 -0.29296875 0.9375 -1.015625 q0.9765625 -1.40625 0.9765625 -1.7578125 q-0.0390625 0 -0.0390625 0.0390625 q-0.0390625 0 -0.0390625 -0.0390625 z M22.86135 9.375 q0.166015625 0 0.3125 0.078125 q0 -0.0390625 0.0390625 -0.0390625 q0 0.068359375 0.1953125 0.1171875 l0 -0.039063 l0.58594 0.15625 q0.13671875 0.15625 0.2734375 0.15625 q0.15625 0.439453125 0.15625 0.546875 l0 0.039063 q0 0.498046875 -0.78125 1.953125 l-0.078125 -0.039063 q-0.712890625 1.2890625 -1.3671875 2.1484375 q-1.162109375 1.2890625 -1.640625 1.2890625 q-0.0390625 0 -0.46875 -0.1171875 l-0.11719 0 q0 -0.09765625 -0.3515625 -0.3125 l-0.23438 -0.35156 l0 -0.078125 l0.15625 0.039063 q0.615234375 0 1.171875 -0.703125 q0.4296875 -0.29296875 0.9765625 -0.9765625 l0.039063 0 l-0.039063 -0.078125 q0.56640625 -0.703125 1.09375 -1.8359375 l0.078125 0 l-0.039063 0.078125 l0.039063 0 l0.11719 -0.19531 l-0.039063 0 q0 0.078125 -0.078125 0.078125 l0 -0.078125 q0.3515625 -0.634765625 0.3515625 -0.7421875 q-0.576171875 0.09765625 -1.640625 1.2109375 q-0.703125 0.60546875 -0.703125 0.859375 q-1.42578125 1.708984375 -2.265625 3.75 q-0.2734375 0.83984375 -0.2734375 1.4453125 q0.1171875 0.9375 0.6640625 0.9375 q0 0.0390625 0.0390625 0.0390625 l0.3125 0 l0.078125 -0.039063 l0 0.039063 q0.60546875 0 2.109375 -1.484375 q0.48828125 -0.46875 0.703125 -0.46875 l0.039063 0 q0 0.078125 0.1953125 0.1953125 l0.039063 0.078125 q-0.078125 0.009765625 -0.078125 0.078125 q0.009765625 0.078125 0.078125 0.078125 q0 -0.0390625 0.0390625 -0.0390625 l0.039063 0.27344 l0 0.078125 l-0.078125 0.11719 l0.039063 0 q-0.0390625 0.048828125 -0.0390625 0.234375 l0.039063 0 q-0.078125 0.15625 -0.1171875 0.15625 l0.039063 0.078125 q-0.498046875 0.927734375 -0.703125 1.1328125 q-0.869140625 0.7421875 -1.40625 0.7421875 q0 0.0390625 -0.2734375 0.0390625 l-0.39063 0 q-0.0390625 0 -0.0390625 -0.0390625 q-0.0390625 0 -0.0390625 0.0390625 q-0.6640625 -0.087890625 -1.5234375 -0.6640625 q-0.46875 -0.380859375 -0.859375 -0.9375 q-0.4296875 -0.927734375 -0.4296875 -1.25 l0 -0.46875 q0.068359375 -0.947265625 0.78125 -2.1484375 q0.29296875 -0.673828125 1.6015625 -2.3828125 q1.396484375 -1.5625 2.0703125 -1.9921875 q0.46875 -0.302734375 0.46875 -0.390625 l0.078125 0.039063 q0 -0.15625 0.6640625 -0.4296875 l0.39063 0 z M31.503915625 11.0645 l0.15625 0 q0.078125 0.087890625 0.625 0.3125 q0 0.068359375 0.3125 0.3125 q0.3125 0.25390625 0.3125 0.4296875 l0 0.19531 q0 0.56640625 -1.5234375 2.6953125 q-1.220703125 1.650390625 -2.7734375 4.2578125 q-0.3515625 0.751953125 -0.3515625 1.25 q0.009765625 0.09765625 0.1953125 0.15625 q0.048828125 0 0.546875 -0.15625 q0 0.0390625 0.0390625 0.0390625 l0.039063 -0.078125 l0.078125 0.039063 l1.1328 -0.50781 l0 -0.039063 l0.039063 0 q0.0390625 0 0.0390625 0.0390625 l0.82031 -0.39063 q0.234375 -0.05859375 0.234375 -0.15625 l0.078125 0.039063 q0.2734375 -0.224609375 0.9375 -0.46875 q0 -0.048828125 0.0390625 -0.1171875 l0.078125 0.039063 q0.8203125 -0.546875 0.8984375 -0.546875 q0 -0.05859375 0.546875 -0.3125 q0.009765625 -0.078125 0.078125 -0.078125 l0.039063 0 l0 0.078125 l0.039063 0 l0 -0.11719 l0.078125 0 l0 0.078125 l0.078125 -0.039063 l0 0.078125 q-0.05859375 0 -0.15625 0.15625 l0.039063 0.078125 l0 0.039063 q-0.1171875 0 -0.1953125 0.3515625 q0.0390625 0 0.0390625 0.0390625 q-0.146484375 0 -0.4296875 0.46875 l-0.039063 0 l0.039063 0.078125 q-0.068359375 0.126953125 -0.7421875 0.625 q0 0.0390625 0.0390625 0.0390625 q-0.107421875 0.224609375 -0.8203125 0.5859375 q-0.166015625 0.17578125 -1.484375 0.859375 l0 -0.039063 q-0.41015625 0.283203125 -1.09375 0.46875 q-0.546875 0.048828125 -0.546875 0.1171875 q-0.7421875 -0.078125 -1.2109375 -0.3125 q-0.654296875 -0.517578125 -0.8984375 -1.640625 q-0.078125 -0.380859375 -0.078125 -0.5859375 q0.05859375 -0.3515625 0.1171875 -0.3515625 l-0.039063 -0.078125 l0 -0.039063 q0.44921875 -1.171875 0.8984375 -1.6796875 q0.791015625 -1.38671875 1.484375 -2.3046875 l1.1328 -1.7578 l0 -0.039063 l-0.039063 0 q-1.142578125 0.56640625 -2.6953125 1.9921875 q-1.38671875 1.376953125 -2.5390625 2.8125 q-0.810546875 0.9375 -0.9375 0.9375 l-0.039063 0 l0 -0.039063 q-0.0390625 0 -0.0390625 0.0390625 l-0.19531 -0.039063 l-0.039063 0 l-0.078125 0.039063 l0 -0.078125 l-0.078125 0 l-0.078125 0.039063 q-0.537109375 -0.48828125 -0.5859375 -0.7421875 l-0.039063 0 q0 -0.0390625 0.0390625 -0.0390625 l-0.039063 -0.39063 q0 -0.439453125 0.390625 -1.484375 q0.146484375 -0.146484375 0.5078125 -0.859375 q0.966796875 -1.630859375 1.328125 -2.1484375 q0.46875 -0.673828125 0.46875 -0.8203125 l0.078125 0 l0.078125 0.039063 q0.009765625 -0.078125 0.078125 -0.078125 q0.146484375 0.048828125 0.3515625 0.1953125 l0.11719 0 q0.546875 0.33203125 0.546875 0.9765625 q0.1953125 -0.1171875 0.3125 -0.1171875 l-0.039063 -0.078125 q0.205078125 -0.0390625 0.5078125 -0.390625 q0.390625 -0.166015625 0.390625 -0.3125 l0.078125 0.039063 q0.869140625 -0.673828125 2.34375 -1.328125 q0.56640625 -0.2734375 0.9765625 -0.2734375 z"></path></g><g id="SvgjsG1010" featurekey="nameRightFeature-0" transform="matrix(1.3040733337402344,0,0,1.3040733337402344,202.98665071376666,8.160583979988008)" fill="#111111"><path d="M9.4922 3.7109999999999985 q0.3125 0.107421875 0.46875 0.234375 l0.078125 -0.039063 l0.11719 0 l0.39063 0.35156 q0.17578125 0 0.234375 0.5859375 q-0.234375 1.640625 -0.703125 1.640625 q-0.15625 0 -0.15625 0.0390625 q-0.1171875 0 -0.7421875 -0.5078125 q0 0.078125 -0.5078125 0.4296875 q-0.1171875 0.3125 -0.3125 0.3125 q0 0.087890625 -0.46875 0.546875 q-1.1328125 1.328125 -1.6796875 2.265625 q-0.76171875 1.171875 -2.3828125 4.765625 l0 0.039063 l0.039063 0 q0.498046875 0 0.5859375 -0.1171875 l0.078125 0.039063 q0.95703125 -0.1953125 2.1484375 -0.625 l0 0.039063 q-0.0390625 0.078125 -0.0390625 0.1171875 q0.0390625 0 0.0390625 0.0390625 q-0.0390625 0 -0.0390625 0.0390625 q0.078125 0.009765625 0.078125 0.078125 q-0.13671875 0.3515625 -0.234375 0.4296875 l0.039063 0.078125 q-0.17578125 0.13671875 -0.3515625 0.3515625 q-1.171875 0.546875 -1.640625 0.546875 q0 0.09765625 -0.5078125 0.15625 q-0.859375 0.166015625 -0.859375 0.4296875 q-0.703125 1.708984375 -1.25 3.3984375 l0.039063 0 q-0.3515625 0.732421875 -1.2890625 4.0234375 l-0.3125 0.3125 l0 -0.078125 q-0.1171875 0 -0.1171875 0.1171875 l-0.11719 0 l0 -0.078125 l-0.039063 0 l-0.078125 0.039063 q0 -0.107421875 -0.1171875 -0.15625 l0 -0.039063 l-0.039063 0 q0 0.0390625 -0.0390625 0.1171875 q-0.15625 -0.05859375 -0.15625 -0.1171875 l0 -0.039063 l0.039063 -0.078125 l-0.078125 0.039063 q-0.078125 -0.0390625 -0.1171875 -0.0390625 l0.039063 -0.078125 l0 -0.078125 l-0.078125 0 l0.039063 -0.19531 l0 -0.19531 q0 -0.166015625 -0.078125 -0.3125 l0.078125 0 l0 -0.11719 l-0.039063 -0.078125 q0.09765625 0 0.390625 -1.0546875 q0.0390625 0 0.0390625 -0.0390625 l-0.039063 0 l0.11719 -0.19531 l-0.039063 0 q0.3125 -0.849609375 0.390625 -1.25 q0.0390625 0 0.0390625 -0.0390625 l-0.039063 -0.078125 q0.09765625 -0.078125 0.4296875 -1.1328125 l-0.039063 -0.078125 l0 -0.039063 q0.1171875 -0.009765625 0.3515625 -0.8984375 q0.107421875 -0.234375 0.15625 -0.234375 l-0.039063 -0.078125 q0.3515625 -0.95703125 0.4296875 -1.09375 l0 -0.039063 l-0.039063 0 q-1.083984375 0.234375 -1.875 0.5078125 q-0.390625 0 -0.8203125 -0.3515625 q0 -0.078125 -0.1953125 -0.1953125 l0 -0.039063 l-0.078125 0.039063 l-0.039063 0 l-0.078125 -0.27344 q0.244140625 -0.166015625 1.171875 -0.3515625 q0.3125 -0.1171875 1.484375 -0.4296875 q0 0.0390625 0.0390625 0.0390625 l0.039063 -0.078125 l0.078125 0.039063 q0.9375 -0.107421875 0.9375 -0.4296875 q0 -0.087890625 0.1953125 -0.4296875 l-0.039063 0 q0.15625 -0.263671875 0.546875 -1.328125 q0.29296875 -0.41015625 0.625 -1.3671875 q0.390625 -0.703125 0.8203125 -1.6015625 q0.05859375 0 0.3515625 -0.6640625 q1.201171875 -1.943359375 2.03125 -2.8515625 q1.03515625 -1.279296875 2.421875 -2.4609375 l0 -0.039063 l0.19531 0 q0.05859375 0 0.1171875 -0.1171875 z M11.933615625 9.375 q0.166015625 0 0.3125 0.078125 q0 -0.0390625 0.0390625 -0.0390625 q0 0.068359375 0.1953125 0.1171875 l0 -0.039063 l0.58594 0.15625 q0.13671875 0.15625 0.2734375 0.15625 q0.15625 0.439453125 0.15625 0.546875 l0 0.039063 q0 0.498046875 -0.78125 1.953125 l-0.078125 -0.039063 q-0.712890625 1.2890625 -1.3671875 2.1484375 q-1.162109375 1.2890625 -1.640625 1.2890625 q-0.0390625 0 -0.46875 -0.1171875 l-0.11719 0 q0 -0.09765625 -0.3515625 -0.3125 l-0.23438 -0.35156 l0 -0.078125 l0.15625 0.039063 q0.615234375 0 1.171875 -0.703125 q0.4296875 -0.29296875 0.9765625 -0.9765625 l0.039063 0 l-0.039063 -0.078125 q0.56640625 -0.703125 1.09375 -1.8359375 l0.078125 0 l-0.039063 0.078125 l0.039063 0 l0.11719 -0.19531 l-0.039063 0 q0 0.078125 -0.078125 0.078125 l0 -0.078125 q0.3515625 -0.634765625 0.3515625 -0.7421875 q-0.576171875 0.09765625 -1.640625 1.2109375 q-0.703125 0.60546875 -0.703125 0.859375 q-1.42578125 1.708984375 -2.265625 3.75 q-0.2734375 0.83984375 -0.2734375 1.4453125 q0.1171875 0.9375 0.6640625 0.9375 q0 0.0390625 0.0390625 0.0390625 l0.3125 0 l0.078125 -0.039063 l0 0.039063 q0.60546875 0 2.109375 -1.484375 q0.48828125 -0.46875 0.703125 -0.46875 l0.039063 0 q0 0.078125 0.1953125 0.1953125 l0.039063 0.078125 q-0.078125 0.009765625 -0.078125 0.078125 q0.009765625 0.078125 0.078125 0.078125 q0 -0.0390625 0.0390625 -0.0390625 l0.039063 0.27344 l0 0.078125 l-0.078125 0.11719 l0.039063 0 q-0.0390625 0.048828125 -0.0390625 0.234375 l0.039063 0 q-0.078125 0.15625 -0.1171875 0.15625 l0.039063 0.078125 q-0.498046875 0.927734375 -0.703125 1.1328125 q-0.869140625 0.7421875 -1.40625 0.7421875 q0 0.0390625 -0.2734375 0.0390625 l-0.39063 0 q-0.0390625 0 -0.0390625 -0.0390625 q-0.0390625 0 -0.0390625 0.0390625 q-0.6640625 -0.087890625 -1.5234375 -0.6640625 q-0.46875 -0.380859375 -0.859375 -0.9375 q-0.4296875 -0.927734375 -0.4296875 -1.25 l0 -0.46875 q0.068359375 -0.947265625 0.78125 -2.1484375 q0.29296875 -0.673828125 1.6015625 -2.3828125 q1.396484375 -1.5625 2.0703125 -1.9921875 q0.46875 -0.302734375 0.46875 -0.390625 l0.078125 0.039063 q0 -0.15625 0.6640625 -0.4296875 l0.39063 0 z M16.96288125 8.281 l0.039063 0 l0.3125 0.15625 q0.068359375 -0.0390625 0.15625 -0.0390625 l0.3125 0.19531 l0.078125 -0.039063 q0.37109375 0.537109375 0.390625 0.7421875 q-0.09765625 0.3125 -0.3515625 0.3125 q-0.205078125 -0.01953125 -0.625 -0.3125 q-0.13671875 0 -0.3125 -0.625 q-0.029296875 0 -0.1171875 -0.1171875 z M15.83008125 11.4844 l0.039063 0 l0 0.078125 q0.0390625 0 0.0390625 -0.0390625 q1.09375 0.302734375 1.09375 0.8984375 q0.0390625 0 0.0390625 0.234375 q-1.513671875 2.412109375 -2.421875 4.296875 q0 0.087890625 -0.3515625 0.78125 q-0.4296875 1.455078125 -0.4296875 1.484375 q0.15625 0.322265625 0.1953125 0.5859375 q-0.05859375 0 -0.1171875 0.15625 l-0.078125 -0.039063 l-0.11719 0 l0 0.078125 q-0.5078125 -0.146484375 -0.5078125 -0.3515625 q-0.0390625 0 -0.0390625 0.0390625 q-0.546875 -0.419921875 -0.546875 -1.1328125 q-0.068359375 0 -0.078125 -0.46875 q0 -1.0546875 1.328125 -3.59375 q0.849609375 -1.62109375 1.6796875 -2.65625 z M19.140671875 11.5625 q0.224609375 0.1171875 0.3125 0.1171875 l0.11719 0 q0 0.087890625 0.2734375 0.1953125 q0.33203125 0.361328125 0.390625 0.78125 l0 0.3125 q-0.1171875 0.380859375 -0.1171875 0.4296875 l0.039063 0 q2.0703125 -1.6015625 3.8671875 -1.6015625 q0.986328125 0 1.7578125 0.7421875 q0 0.087890625 0.0390625 0.15625 q-0.13671875 0.0390625 -0.15625 0.0390625 l0.039063 0.078125 l-0.039063 0 l0.039063 0.078125 q0 0.078125 -0.3125 0.1171875 q-0.1953125 -0.0390625 -0.1953125 -0.078125 l-0.078125 0.039063 q-0.37109375 -0.078125 -0.5859375 -0.078125 q-0.0390625 0 -0.0390625 0.0390625 q-0.0390625 0 -0.0390625 -0.0390625 q-1.19140625 0 -3.1640625 1.40625 q-1.58203125 1.4453125 -1.8359375 2.0703125 q-0.15625 0.0390625 -0.625 0.9765625 q-0.1953125 0.87890625 -0.390625 1.171875 q-0.341796875 1.0546875 -0.546875 1.0546875 q0 0.29296875 -0.703125 0.4296875 q0 -0.087890625 -0.3125 -0.1953125 l0 -0.039063 q0.0390625 0 0.0390625 -0.0390625 q-0.166015625 0 -0.3515625 -0.9765625 q-0.068359375 0 -0.078125 -0.1953125 l0 -0.078125 l0.078125 0.039063 q1.03515625 -1.708984375 1.09375 -2.265625 q0.0390625 0 0.1171875 -0.3125 l-0.039063 0 q0.1171875 -0.1953125 0.1171875 -0.3125 l-0.039063 -0.078125 l0.078125 -0.039063 q0 0.0390625 0.0390625 0.0390625 q0 -0.25390625 0.546875 -1.9921875 q0.1953125 -0.625 0.5078125 -1.4453125 q0.09765625 -0.5078125 0.15625 -0.546875 z M26.738240625 13.3203 l0 0.039063 l-0.039063 0.078125 l0.039063 0 l0.11719 -0.15625 l0 -0.039063 z M25.449220625 14.9219 q0 0.0390625 -0.0390625 0.1171875 l0.039063 0 l0.039063 -0.078125 l0 -0.039063 l-0.039063 0 z M25.996090625 14.2187 l-0.078125 0.11719 l0.039063 0 l0.078125 -0.11719 l-0.039063 0 z M26.621140625 13.476600000000001 l-0.19531 0.23438 l0 0.039063 q0.068359375 0 0.234375 -0.2734375 l-0.039063 0 z M25.800780625 17.2266 q0.68359375 -0.458984375 1.2109375 -1.1328125 l1.2891 -1.3672 q1.259765625 -1.357421875 1.4453125 -1.3671875 q0 -0.087890625 0.78125 -0.7421875 q0.0390625 -0.21484375 0.0390625 -0.3515625 l0 -0.11719 l-0.11719 0 l-0.078125 0.039063 l0 -0.039063 q-0.6640625 0.17578125 -0.6640625 0.390625 q-0.224609375 0 -1.09375 0.78125 q-1.2890625 1.23046875 -1.9921875 2.1875 q-0.8203125 1.279296875 -0.8203125 1.71875 z M26.113280625 14.023399999999999 l0 0.078125 q0.05859375 0 0.15625 -0.15625 l0 -0.039063 z M26.738240625 13.3203 l0 -0.039063 q0.2734375 -0.3125 0.3125 -0.3125 l0 0.078125 l0.078125 -0.039063 l-0.039063 -0.078125 q0 -0.05859375 0.1171875 -0.1171875 l0 0.039063 l-0.039063 0.078125 l0.078125 0 q0 -0.068359375 0.4296875 -0.46875 l-0.039063 0 q0.0390625 -0.078125 0.0390625 -0.1171875 l0.039063 0 l0 0.078125 l0.039063 0 q0 -0.263671875 0.3515625 -0.3515625 l0.11719 -0.15625 l-0.039063 0 q0 0.05859375 -0.1171875 0.1171875 l-0.039063 0 l0.23438 -0.27344 q-0.0390625 0 -0.0390625 -0.0390625 q0.1171875 0 0.1171875 -0.078125 l0.039063 0 l0.078125 0.039063 l0 -0.11719 l0.039063 0 l0 0.078125 l0.039063 0 l0 -0.11719 l0.039063 0 q0 0.0390625 0.0390625 0.1171875 q0.078125 -0.0390625 0.1171875 -0.0390625 l-0.039063 -0.078125 q0.4296875 -0.166015625 0.4296875 -0.234375 l0 -0.039063 q0.9375 -0.05859375 0.9375 -0.1171875 l0.078125 0.039063 l0.23438 0 l0.078125 -0.039063 l0 0.039063 l0.078125 -0.039063 l0.23438 0 q0.478515625 0 1.09375 0.78125 l0.039063 0 l0.19531 -0.039063 l0 0.039063 l-0.039063 0.078125 l0.078125 0 q0.0390625 0 0.0390625 -0.0390625 q0.3515625 0.05859375 0.703125 0.5859375 l0 0.11719 q-0.146484375 0.576171875 -1.4453125 2.96875 q-1.1328125 2.40234375 -1.1328125 3.90625 l0 0.23438 q0 0.2734375 0.1171875 0.5859375 q-0.0390625 0.078125 -0.0390625 0.1171875 q0 0.068359375 0.078125 0.234375 q-0.05859375 0 -0.3125 0.234375 l-0.039063 0 q-0.0390625 0 -0.0390625 -0.0390625 l-0.078125 0.039063 q-0.126953125 -0.078125 -0.1953125 -0.078125 q0 0.0390625 -0.0390625 0.0390625 q-0.6640625 -0.60546875 -0.8203125 -1.3671875 l0 -0.078125 l0.039063 -0.078125 l-0.039063 -0.23438 l0 -0.078125 l-0.078125 0 l0.039063 -0.078125 l0 -0.19531 q0 -0.91796875 0.234375 -1.484375 l-0.039063 -0.078125 q0.3125 -1.0546875 0.46875 -1.2890625 l-0.039063 -0.078125 q0 -0.1171875 0.1953125 -0.5078125 l-0.039063 0 q-0.576171875 0.52734375 -2.34375 2.5390625 q-0.966796875 0.99609375 -1.3671875 1.0546875 q-0.78125 0 -1.171875 -0.78125 q-0.1953125 -0.1171875 -0.3125 -0.9375 l0 -0.039063 q0.146484375 -0.625 0.1953125 -0.625 l0 -0.039063 l-0.039063 0 q0.361328125 -1.162109375 0.9765625 -1.8359375 l0 0.039063 l-0.078125 0.11719 l0.039063 0 l0.23438 -0.3125 l-0.078125 0.039063 l-0.039063 0 l0 -0.039063 q0.234375 -0.37109375 0.4296875 -0.5078125 l0 -0.039063 q0.13671875 -0.224609375 0.625 -0.6640625 z M24.550780625 16.1328 l0.11719 0 l0 0.078125 l-0.078125 -0.039063 l0 0.078125 l-0.039063 0 l0 -0.11719 z M24.902340625 15.585899999999999 l0 0.039063 q-0.05859375 0.15625 -0.1171875 0.15625 l0 -0.039063 q0.05859375 -0.15625 0.1171875 -0.15625 z M24.980470625 15.4297 l0 0.11719 l-0.078125 0 l0 -0.039063 q0.009765625 -0.078125 0.078125 -0.078125 z M25.214843625 15.039100000000001 l0 0.039063 q0 0.078125 -0.078125 0.078125 l0 -0.039063 q0.009765625 -0.078125 0.078125 -0.078125 z M25.410160625 14.7656 l0 0.039063 q0 0.05859375 -0.1171875 0.1171875 l0 -0.039063 q0 -0.05859375 0.1171875 -0.1171875 z M25.683590625 14.5703 l0 0.11719 l-0.078125 0 l0 -0.039063 q0.009765625 -0.078125 0.078125 -0.078125 z M25.605470625 14.4922 l0 0.039063 q0 0.05859375 -0.1171875 0.1171875 l0 -0.039063 q0 -0.05859375 0.1171875 -0.1171875 z M25.800780625 14.2187 l0 0.039063 q-0.048828125 0.15625 -0.1953125 0.234375 l0 -0.039063 q0.146484375 -0.234375 0.1953125 -0.234375 z M25.957030625 14.023399999999999 l0 0.039063 q-0.078125 0.09765625 -0.078125 0.15625 l-0.078125 0 q0.078125 -0.17578125 0.15625 -0.1953125 z M26.777340625 13.125 l0 0.039063 q-0.5859375 0.6640625 -0.625 0.6640625 l0 -0.039063 q0.517578125 -0.6640625 0.625 -0.6640625 z M27.402340625 12.6172 l0.039063 0 q0 0.05859375 -0.1171875 0.1171875 l0 -0.039063 q0.009765625 -0.078125 0.078125 -0.078125 z M27.558640625 12.3047 l0.039063 0 l0 0.078125 q-0.107421875 0 -0.546875 0.5078125 l-0.15625 0.11719 l0 -0.039063 q0.60546875 -0.6640625 0.6640625 -0.6640625 z M27.910140625 11.9141 l0.039063 0 l0 0.11719 l-0.15625 0.11719 l0 -0.039063 q0.1171875 -0.126953125 0.1171875 -0.1953125 z"></path></g></svg>